<?xml version="1.0" standalone="no"?>
<!DOCTYPE svg PUBLIC "-//W3C//DTD SVG 20010904//EN"
 "http://www.w3.org/TR/2001/REC-SVG-20010904/DTD/svg10.dtd">
<svg version="1.0" xmlns="http://www.w3.org/2000/svg"
 width="420.000000pt" height="420.000000pt" viewBox="0 0 420.000000 420.000000"
 preserveAspectRatio="xMidYMid meet">
<metadata>
Created by potrace 1.11, written by Peter Selinger 2001-2013
</metadata>
<g transform="translate(0.000000,420.000000) scale(0.100000,-0.100000)"
fill="#000000" stroke="none">
<path d="M3095 4147 c-91 -31 -142 -71 -313 -252 -2 -1 233 -240 521 -530
l524 -528 93 96 c108 112 132 145 154 211 34 101 23 213 -31 306 -15 25 -160
179 -324 343 -265 265 -305 301 -363 328 -78 37 -194 48 -261 26z"/>
<path d="M2555 3706 c-23 -23 -78 -76 -122 -119 l-82 -78 545 -545 c300 -300
549 -544 553 -542 5 2 42 35 84 73 41 39 95 89 120 111 l45 42 -518 518 c-285
286 -533 533 -552 550 l-33 30 -40 -40z"/>
<path d="M1634 2782 c-304 -301 -705 -698 -892 -884 -321 -318 -340 -339 -356
-390 -8 -29 -25 -84 -37 -123 -11 -38 -25 -83 -29 -100 -4 -16 -67 -230 -140
-475 -72 -245 -133 -452 -135 -460 -2 -8 -8 -28 -14 -43 -27 -70 -4 -156 52
-194 67 -45 59 -47 767 162 364 107 673 203 688 214 15 11 34 32 42 47 8 15
71 83 140 152 69 68 448 444 843 835 394 391 717 714 717 717 0 5 -121 130
-194 200 l-36 34 -868 -871 -867 -872 -345 -100 c-189 -56 -348 -101 -353
-101 -4 0 -41 33 -82 72 l-73 73 107 364 106 364 863 861 863 861 -102 103
c-56 56 -105 102 -108 102 -3 -1 -254 -247 -557 -548z"/>
<path d="M1700 2079 c-703 -705 -867 -875 -853 -881 10 -4 65 -17 123 -28 57
-12 106 -23 108 -24 1 -2 5 -25 8 -52 4 -27 11 -78 18 -114 l11 -65 875 872
875 872 -147 147 -148 147 -870 -874z"/>
</g>
</svg>
